HIERARCHY
ROOT hip
{
  OFFSET 0 0 0
  CHANNELS 6 Xposition Yposition Zposition Zrotation Yrotation Xrotation
  JOINT abdomen
  {
    OFFSET 0 20.6881 -0.73152
    CHANNELS 3 Zrotation Xrotation Yrotation
    JOINT chest
    {
      OFFSET 0 11.7043 -0.48768
      CHANNELS 3 Zrotation Xrotation Yrotation
      JOINT neck
      {
        OFFSET 0 22.1894 -2.19456
        CHANNELS 3 Zrotation Xrotation Yrotation
        JOINT head
        {
          OFFSET -0.24384 7.07133 1.2192
          CHANNELS 3 Zrotation Xrotation Yrotation
          JOINT leftEye
          {
            OFFSET 4.14528 8.04674 8.04672
            CHANNELS 3 Zrotation Xrotation Yrotation
            End Site
            {
              OFFSET 1 0 0
            }
          }
          JOINT rightEye
          {
            OFFSET -3.6576 8.04674 8.04672
            CHANNELS 3 Zrotation Xrotation Yrotation
            End Site
            {
              OFFSET 1 0 0
            }
          }
        }
      }
      JOINT rCollar
      {
        OFFSET -2.68224 19.2634 -4.8768
        CHANNELS 3 Zrotation Xrotation Yrotation
        JOINT rShldr
        {
          OFFSET -8.77824 -1.95073 1.46304
          CHANNELS 3 Zrotation Xrotation Yrotation
          JOINT rForeArm
          {
            OFFSET -28.1742 -1.7115 0.48768
            CHANNELS 3 Zrotation Xrotation Yrotation
            JOINT rHand
            {
              OFFSET -22.5879 0.773209 7.07136
              CHANNELS 3 Zrotation Xrotation Yrotation
              JOINT rThumb1
              {
                OFFSET -1.2192 -0.487915 3.41376
                CHANNELS 3 Zrotation Xrotation Yrotation
                JOINT rThumb2
                {
                  OFFSET -3.37035 -0.52449 3.41376
                  CHANNELS 3 Zrotation Xrotation Yrotation
                  End Site
                  {
                    OFFSET -1.78271 -1.18214 1.43049
                  }
                }
              }
              JOINT rIndex1
              {
                OFFSET -7.75947 0.938293 5.60832
                CHANNELS 3 Zrotation Xrotation Yrotation
                JOINT rIndex2
                {
                  OFFSET -2.54057 -0.884171 1.56538
                  CHANNELS 3 Zrotation Xrotation Yrotation
                  End Site
                  {
                    OFFSET -1.62519 -0.234802 1.16502
                  }
                }
              }
              JOINT rMid1
              {
                OFFSET -8.24714 1.18213 3.41376
                CHANNELS 3 Zrotation Xrotation Yrotation
                JOINT rMid2
                {
                  OFFSET -3.10165 -0.590103 1.0647
                  CHANNELS 3 Zrotation Xrotation Yrotation
                  End Site
                  {
                    OFFSET -2.48547 -0.328903 0.83742
                  }
                }
              }
              JOINT rRing1
              {
                OFFSET -8.82822 0.546677 1.51678
                CHANNELS 3 Zrotation Xrotation Yrotation
                JOINT rRing2
                {
                  OFFSET -2.60934 -0.819778 -0.0198488
                  CHANNELS 3 Zrotation Xrotation Yrotation
                  End Site
                  {
                    OFFSET -2.33842 -0.294052 0.168128
                  }
                }
              }
              JOINT rPinky1
              {
                OFFSET -8.27202 -0.0477905 -0.4584
                CHANNELS 3 Zrotation Xrotation Yrotation
                JOINT rPinky2
                {
                  OFFSET -1.82734 -0.647385 -0.700984
                  CHANNELS 3 Zrotation Xrotation Yrotation
                  End Site
                  {
                    OFFSET -1.69225 -0.51767 -0.607171
                  }
                }
              }
            }
          }
        }
      }
      JOINT lCollar
      {
        OFFSET 2.68224 19.2634 -4.8768
        CHANNELS 3 Zrotation Xrotation Yrotation
        JOINT lShldr
        {
          OFFSET 8.77824 -1.95073 1.46304
          CHANNELS 3 Zrotation Xrotation Yrotation
          JOINT lForeArm
          {
            OFFSET 28.1742 -1.7115 0.48768
            CHANNELS 3 Zrotation Xrotation Yrotation
            JOINT lHand
            {
              OFFSET 22.5879 0.773209 7.07136
              CHANNELS 3 Zrotation Xrotation Yrotation
              JOINT lThumb1
              {
                OFFSET 1.2192 -0.487915 3.41376
                CHANNELS 3 Zrotation Xrotation Yrotation
                JOINT lThumb2
                {
                  OFFSET 3.37035 -0.52449 3.41376
                  CHANNELS 3 Zrotation Xrotation Yrotation
                  End Site
                  {
                    OFFSET 1.78271 -1.18214 1.43049
                  }
                }
              }
              JOINT lIndex1
              {
                OFFSET 7.75947 0.938293 5.60832
                CHANNELS 3 Zrotation Xrotation Yrotation
                JOINT lIndex2
                {
                  OFFSET 2.54057 -0.884171 1.56538
                  CHANNELS 3 Zrotation Xrotation Yrotation
                  End Site
                  {
                    OFFSET 1.62519 -0.234802 1.16502
                  }
                }
              }
              JOINT lMid1
              {
                OFFSET 8.24714 1.18213 3.41376
                CHANNELS 3 Zrotation Xrotation Yrotation
                JOINT lMid2
                {
                  OFFSET 3.10165 -0.590103 1.0647
                  CHANNELS 3 Zrotation Xrotation Yrotation
                  End Site
                  {
                    OFFSET 2.48547 -0.328903 0.83742
                  }
                }
              }
              JOINT lRing1
              {
                OFFSET 8.82822 0.546677 1.51678
                CHANNELS 3 Zrotation Xrotation Yrotation
                JOINT lRing2
                {
                  OFFSET 2.60934 -0.819778 -0.0198488
                  CHANNELS 3 Zrotation Xrotation Yrotation
                  End Site
                  {
                    OFFSET 2.33842 -0.294052 0.168128
                  }
                }
              }
              JOINT lPinky1
              {
                OFFSET 8.27202 -0.0477905 -0.4584
                CHANNELS 3 Zrotation Xrotation Yrotation
                JOINT lPinky2
                {
                  OFFSET 1.82734 -0.647385 -0.700984
                  CHANNELS 3 Zrotation Xrotation Yrotation
                  End Site
                  {
                    OFFSET 1.69225 -0.51767 -0.607171
                  }
                }
              }
            }
          }
        }
      }
    }
  }
  JOINT rButtock
  {
    OFFSET -8.77824 4.35084 1.2192
    CHANNELS 3 Zrotation Xrotation Yrotation
    JOINT rThigh
    {
      OFFSET 0 -1.70687 -2.19456
      CHANNELS 3 Zrotation Xrotation Yrotation
      JOINT rShin
      {
        OFFSET 0 -36.8199 0.73152
        CHANNELS 3 Zrotation Xrotation Yrotation
        JOINT rFoot
        {
          OFFSET 0.73152 -45.1104 -5.12064
          CHANNELS 3 Zrotation Xrotation Yrotation
          End Site
          {
            OFFSET -1.1221 -3.69964 12.103
          }
        }
      }
    }
  }
  JOINT lButtock
  {
    OFFSET 8.77824 4.35084 1.2192
    CHANNELS 3 Zrotation Xrotation Yrotation
    JOINT lThigh
    {
      OFFSET 0 -1.70687 -2.19456
      CHANNELS 3 Zrotation Xrotation Yrotation
      JOINT lShin
      {
        OFFSET 0 -36.8199 0.73152
        CHANNELS 3 Zrotation Xrotation Yrotation
        JOINT lFoot
        {
          OFFSET -0.73152 -45.1104 -5.12064
          CHANNELS 3 Zrotation Xrotation Yrotation
          End Site
          {
            OFFSET 1.1221 -3.69964 12.103
          }
        }
      }
    }
  }
}
MOTION
Frames:	5
Frame Time:	0.03333
0.46720001846551895 73.0201005935669 -0.3969999961555004 -1.7205030918121338 -25.886703491210938 10.529961585998535 -0.1512570083141327 12.915038108825684 1.33631432056427 2.8835525512695312 -9.181243896484375 0.6248846054077148 -8.956646919250488 20.993593215942383 -11.610201835632324 10.00121021270752 -36.83740234375 -20.710695266723633 -0.0 0.0 -0.0 -0.0 0.0 -0.0 -0.0 0.0 -0.0 4.154583930969238 1.5402811765670776 81.20559692382812 -28.151098251342773 -31.613706588745117 69.84141540527344 -4.914988994598389 -51.48741912841797 -10.172139167785645 -0.0 0.0 -0.0 -0.0 0.0 -0.0 -0.0 0.0 -0.0 7.730876445770264 5.474895000457764 0.41732463240623474 -0.0 0.0 -0.0 2.9054994583129883 0.9650753736495972 0.10300876200199127 -0.0 0.0 -0.0 10.278595924377441 0.7317469120025635 0.026285577565431595 -0.0 0.0 -0.0 2.221662759780884 -0.7335850596427917 -0.20831839740276337 -0.0 0.0 -0.0 -30.6337890625 18.927812576293945 -85.88799285888672 23.679290771484375 -18.509994506835938 -48.60970687866211 0.02807662822306156 3.3831264972686768 -0.47684332728385925 -0.0 0.0 -0.0 -0.0 0.0 -0.0 -0.0 0.0 -0.0 -7.730876445770264 5.474895000457764 -0.41732463240623474 -0.0 0.0 -0.0 -2.9054994583129883 0.9650753736495972 -0.10300876200199127 -0.0 0.0 -0.0 -10.278595924377441 0.7317469120025635 -0.026285577565431595 -0.0 0.0 -0.0 -2.221662759780884 -0.7335850596427917 0.20831839740276337 -0.0 0.0 -0.0 9.54938793182373 -46.65888977050781 -5.353519916534424 -1.3105586767196655 64.39739990234375 2.0996592044830322 -11.043194770812988 -9.655904769897461 -31.458498001098633 -0.0 0.0 -0.0 16.65620231628418 -57.996395111083984 7.031867980957031 14.679283142089844 86.03779602050781 -15.031088829040527 0.9017728567123413 7.79414176940918 12.798391342163086
0.9644000325351954 73.26719760894775 -0.7789999945089221 -1.3232355117797852 -23.654804229736328 10.429973602294922 -0.22807644307613373 12.620406150817871 0.6282539963722229 3.308241605758667 -9.25307559967041 0.4648485481739044 -9.236007690429688 21.11589241027832 -11.62669563293457 10.03769588470459 -36.86680221557617 -20.762897491455078 -0.0 0.0 -0.0 -0.0 0.0 -0.0 -0.0 0.0 -0.0 2.4475677013397217 2.2240045070648193 81.86299133300781 -28.14559555053711 -31.56450080871582 69.75289154052734 -4.87984037399292 -51.293731689453125 -10.1110200881958 -0.0 0.0 -0.0 -0.0 0.0 -0.0 -0.0 0.0 -0.0 7.730876445770264 5.474895000457764 0.41732463240623474 -0.0 0.0 -0.0 2.9054994583129883 0.9650753736495972 0.10300876200199127 -0.0 0.0 -0.0 10.278595924377441 0.7317469120025635 0.026285577565431595 -0.0 0.0 -0.0 2.221662759780884 -0.7335850596427917 -0.20831839740276337 -0.0 0.0 -0.0 -30.857406616210938 19.209396362304688 -85.53549194335938 23.619205474853516 -18.402482986450195 -48.42680740356445 0.021253222599625587 4.157785892486572 -0.5854917764663696 -0.0 0.0 -0.0 -0.0 0.0 -0.0 -0.0 0.0 -0.0 -7.730876445770264 5.474895000457764 -0.41732463240623474 -0.0 0.0 -0.0 -2.9054994583129883 0.9650753736495972 -0.10300876200199127 -0.0 0.0 -0.0 -10.278595924377441 0.7317469120025635 -0.026285577565431595 -0.0 0.0 -0.0 -2.221662759780884 -0.7335850596427917 0.20831839740276337 -0.0 0.0 -0.0 8.419113159179688 -46.47920227050781 -6.475568771362305 -1.224230408668518 63.5236930847168 2.0270094871520996 -11.5654935836792 -10.529099464416504 -31.65289878845215 -0.0 0.0 -0.0 18.706193923950195 -56.22148895263672 7.74380350112915 10.873527526855469 84.78372192382812 -11.198821067810059 0.6296864151954651 8.94524097442627 13.128705024719238
1.4408000279217958 73.47300052642822 -1.0669999988749623 -1.0001273155212402 -21.298391342163086 10.449976921081543 -0.15419240295886993 12.530708312988281 0.41989853978157043 3.233537197113037 -9.175722122192383 0.40408092737197876 -9.081578254699707 20.87481117248535 -11.86719799041748 10.031505584716797 -37.01258850097656 -21.210994720458984 -0.0 0.0 -0.0 -0.0 0.0 -0.0 -0.0 0.0 -0.0 1.2236902713775635 2.735673427581787 81.57069396972656 -28.16498374938965 -31.714107513427734 69.99960327148438 -4.880125045776367 -51.36610412597656 -10.127517700195312 -0.0 0.0 -0.0 -0.0 0.0 -0.0 -0.0 0.0 -0.0 7.730876445770264 5.474895000457764 0.41732463240623474 -0.0 0.0 -0.0 2.9054994583129883 0.9650753736495972 0.10300876200199127 -0.0 0.0 -0.0 10.278595924377441 0.7317469120025635 0.026285577565431595 -0.0 0.0 -0.0 2.221662759780884 -0.7335850596427917 -0.20831839740276337 -0.0 0.0 -0.0 -30.3303165435791 19.58388900756836 -85.95370483398438 23.728694915771484 -18.599119186401367 -48.76219177246094 0.05849268287420273 6.8867597579956055 -0.9720879197120667 -0.0 0.0 -0.0 -0.0 0.0 -0.0 -0.0 0.0 -0.0 -7.730876445770264 5.474895000457764 -0.41732463240623474 -0.0 0.0 -0.0 -2.9054994583129883 0.9650753736495972 -0.10300876200199127 -0.0 0.0 -0.0 -10.278595924377441 0.7317469120025635 -0.026285577565431595 -0.0 0.0 -0.0 -2.221662759780884 -0.7335850596427917 0.20831839740276337 -0.0 0.0 -0.0 7.022359371185303 -46.657798767089844 -8.068941116333008 -1.1961781978607178 63.05583190917969 1.9920282363891602 -11.762310028076172 -10.729289054870605 -31.86469841003418 -0.0 0.0 -0.0 20.696718215942383 -54.73280715942383 8.531048774719238 7.9708757400512695 83.11031341552734 -8.275681495666504 0.394753098487854 9.804588317871094 13.718003273010254
1.9541000481694937 73.71370196342468 -1.3590000104159117 -0.8719511032104492 -19.077686309814453 10.38003158569336 -0.11256032437086105 12.529878616333008 0.2778724133968353 3.062573194503784 -9.084033966064453 0.35387688875198364 -8.856696128845215 20.59969139099121 -12.111196517944336 10.007503509521484 -37.22349548339844 -21.664398193359375 -0.0 0.0 -0.0 -0.0 0.0 -0.0 -0.0 0.0 -0.0 0.18930436670780182 3.3966755867004395 80.85639190673828 -28.20899772644043 -32.05309295654297 70.5391845703125 -4.883947849273682 -51.37959671020508 -10.1323823928833 -0.0 0.0 -0.0 -0.0 0.0 -0.0 -0.0 0.0 -0.0 7.730876445770264 5.474895000457764 0.41732463240623474 -0.0 0.0 -0.0 2.9054994583129883 0.9650753736495972 0.10300876200199127 -0.0 0.0 -0.0 10.278595924377441 0.7317469120025635 0.026285577565431595 -0.0 0.0 -0.0 2.221662759780884 -0.7335850596427917 -0.20831839740276337 -0.0 0.0 -0.0 -29.623703002929688 20.067096710205078 -86.47248840332031 23.907602310180664 -18.925601959228516 -49.31849670410156 0.09760057926177979 9.489835739135742 -1.344903826713562 -0.0 0.0 -0.0 -0.0 0.0 -0.0 -0.0 0.0 -0.0 -7.730876445770264 5.474895000457764 -0.41732463240623474 -0.0 0.0 -0.0 -2.9054994583129883 0.9650753736495972 -0.10300876200199127 -0.0 0.0 -0.0 -10.278595924377441 0.7317469120025635 -0.026285577565431595 -0.0 0.0 -0.0 -2.221662759780884 -0.7335850596427917 0.20831839740276337 -0.0 0.0 -0.0 5.388984680175781 -46.87320327758789 -9.88955307006836 -1.1902756690979004 62.72924041748047 1.971577763557434 -11.841423034667969 -10.694685935974121 -32.04960250854492 -0.0 0.0 -0.0 22.355173110961914 -53.414207458496094 9.188102722167969 5.890365123748779 81.03401184082031 -6.184747695922852 0.23447251319885254 10.274510383605957 14.015997886657715
2.4668000638484955 73.96910190582275 -1.5670000109821558 -0.5944597721099854 -16.740388870239258 10.300032615661621 -0.3259182572364807 12.564301490783691 -0.15501365065574646 3.1496057510375977 -9.091264724731445 0.23642855882644653 -8.8558988571167 20.5946102142334 -12.18579387664795 9.9664945602417 -37.526695251464844 -21.82259178161621 -0.0 0.0 -0.0 -0.0 0.0 -0.0 -0.0 0.0 -0.0 -0.9724335074424744 4.413632869720459 80.19450378417969 -28.271596908569336 -32.59369659423828 71.40229797363281 -4.727928161621094 -50.826168060302734 -9.93183422088623 -0.0 0.0 -0.0 -0.0 0.0 -0.0 -0.0 0.0 -0.0 7.730876445770264 5.474895000457764 0.41732463240623474 -0.0 0.0 -0.0 2.9054994583129883 0.9650753736495972 0.10300876200199127 -0.0 0.0 -0.0 10.278595924377441 0.7317469120025635 0.026285577565431595 -0.0 0.0 -0.0 2.221662759780884 -0.7335850596427917 -0.20831839740276337 -0.0 0.0 -0.0 -29.08387565612793 20.737024307250977 -86.57679748535156 24.117496490478516 -19.318986892700195 -49.977291107177734 0.1156906709074974 9.654130935668945 -1.3698972463607788 -0.0 0.0 -0.0 -0.0 0.0 -0.0 -0.0 0.0 -0.0 -7.730876445770264 5.474895000457764 -0.41732463240623474 -0.0 0.0 -0.0 -2.9054994583129883 0.9650753736495972 -0.10300876200199127 -0.0 0.0 -0.0 -10.278595924377441 0.7317469120025635 -0.026285577565431595 -0.0 0.0 -0.0 -2.221662759780884 -0.7335850596427917 0.20831839740276337 -0.0 0.0 -0.0 3.420788049697876 -46.8887939453125 -11.845010757446289 -1.1578612327575684 62.36493682861328 1.932166337966919 -11.856488227844238 -10.608696937561035 -32.11419677734375 -0.0 0.0 -0.0 23.339801788330078 -52.18379211425781 9.498491287231445 4.400623321533203 78.58341979980469 -4.70550012588501 0.2355596274137497 10.099111557006836 13.460886001586914
